<svg width="224" height="46" viewBox="0 0 224 46" fill="none" xmlns="http://www.w3.org/2000/svg">
<path d="M17.465 35.434C14.0024 35.434 11.0297 34.7022 8.54699 33.2385C6.06433 31.7424 4.15333 29.677 2.81399 27.0425C1.47465 24.3755 0.804993 21.3018 0.804993 17.8216C0.804993 14.3413 1.47465 11.2677 2.81399 8.60066C4.15333 5.9336 6.06433 3.85197 8.54699 2.35582C11.0297 0.859653 14.0024 0.111572 17.465 0.111572C21.581 0.111572 24.9456 1.13612 27.559 3.18521C30.205 5.20178 31.8546 8.04773 32.508 11.7231H25.599C25.1744 9.86915 24.2596 8.42178 22.855 7.38097C21.483 6.30763 19.6536 5.77097 17.367 5.77097C14.1984 5.77097 11.7157 6.8443 9.91899 8.99097C8.12233 11.1376 7.22399 14.0812 7.22399 17.8216C7.22399 21.5619 8.12233 24.5055 9.91899 26.6522C11.7157 28.7664 14.1984 29.8234 17.367 29.8234C19.6536 29.8234 21.483 29.3355 22.855 28.3598C24.2596 27.3515 25.1744 25.9691 25.599 24.2128H32.508C31.8546 27.7255 30.205 30.4739 27.559 32.4579C24.9456 34.4419 21.581 35.434 17.465 35.434ZM45.312 35.434C43.2212 35.434 41.5062 35.1088 40.167 34.4582C38.8276 33.7752 37.8312 32.8807 37.178 31.7749C36.5246 30.6691 36.198 29.4494 36.198 28.1158C36.198 25.8716 37.08 24.0501 38.844 22.6516C40.608 21.253 43.254 20.5537 46.782 20.5537H52.956V19.9682C52.956 18.3095 52.4822 17.0898 51.535 16.3091C50.5876 15.5285 49.4116 15.1382 48.007 15.1382C46.733 15.1382 45.6222 15.4473 44.675 16.0652C43.7276 16.6507 43.1396 17.5288 42.911 18.6998H36.786C36.9492 16.9434 37.5372 15.4147 38.55 14.1137C39.5952 12.8127 40.9346 11.8207 42.568 11.1376C44.2012 10.4221 46.0306 10.0643 48.056 10.0643C51.5186 10.0643 54.2462 10.9262 56.239 12.6501C58.2316 14.3739 59.228 16.8133 59.228 19.9682V34.8485H53.887L53.299 30.9455C52.5802 32.2465 51.5676 33.3198 50.261 34.1655C48.987 35.0112 47.3372 35.434 45.312 35.434ZM46.733 30.5552C48.5296 30.5552 49.918 29.9698 50.898 28.7988C51.9106 27.6279 52.5476 26.1806 52.809 24.4567H47.468C45.802 24.4567 44.6096 24.7658 43.891 25.3837C43.1722 25.9691 42.813 26.701 42.813 27.5791C42.813 28.5224 43.1722 29.2542 43.891 29.7746C44.6096 30.295 45.557 30.5552 46.733 30.5552ZM74.2783 35.434C72.1223 35.434 70.2275 35.0925 68.5942 34.4095C66.9609 33.6939 65.6543 32.7182 64.6743 31.4822C63.6943 30.2462 63.1063 28.8152 62.9103 27.1888H69.2313C69.4273 28.1321 69.9499 28.9452 70.7992 29.6282C71.6813 30.2788 72.8083 30.604 74.1803 30.604C75.5523 30.604 76.5485 30.3276 77.1693 29.7746C77.8225 29.2216 78.1493 28.5874 78.1493 27.8719C78.1493 26.831 77.6919 26.1318 76.7773 25.774C75.8625 25.3837 74.5885 25.0097 72.9553 24.6519C71.9099 24.4242 70.8483 24.1477 69.7702 23.8225C68.6923 23.4973 67.6959 23.0907 66.7812 22.6028C65.8993 22.0824 65.1805 21.4319 64.6253 20.6513C64.0699 19.8382 63.7922 18.8461 63.7922 17.6752C63.7922 15.5285 64.6415 13.7234 66.3402 12.2598C68.0715 10.7961 70.4889 10.0643 73.5922 10.0643C76.4669 10.0643 78.7535 10.7311 80.4522 12.0646C82.1835 13.3981 83.2125 15.2358 83.5392 17.5776H77.6103C77.2509 15.7888 75.8952 14.8943 73.5433 14.8943C72.3672 14.8943 71.4525 15.1219 70.7992 15.5773C70.1785 16.0327 69.8682 16.6019 69.8682 17.2849C69.8682 18.0004 70.3419 18.5697 71.2892 18.9925C72.2365 19.4153 73.4942 19.8056 75.0622 20.1634C76.7609 20.5537 78.3125 20.9928 79.7172 21.4807C81.1545 21.9361 82.2979 22.6353 83.1472 23.5785C83.9965 24.4892 84.4212 25.8065 84.4212 27.5304C84.4539 29.0265 84.0619 30.3764 83.2452 31.5798C82.4285 32.7831 81.2525 33.7264 79.7172 34.4095C78.1819 35.0925 76.3689 35.434 74.2783 35.434ZM99.0608 34.8485C96.5128 34.8485 94.471 34.2306 92.9358 32.9946C91.4004 31.7586 90.6328 29.5631 90.6328 26.4082V15.8701H86.4678V10.6498H90.6328L91.3678 4.16097H96.9048V10.6498H103.471V15.8701H96.9048V26.457C96.9048 27.6279 97.1498 28.441 97.6398 28.8964C98.1624 29.3192 99.0444 29.5307 100.286 29.5307H103.324V34.8485H99.0608ZM116.255 35.434C114.164 35.434 112.449 35.1088 111.11 34.4582C109.77 33.7752 108.774 32.8807 108.121 31.7749C107.467 30.6691 107.141 29.4494 107.141 28.1158C107.141 25.8716 108.023 24.0501 109.787 22.6516C111.551 21.253 114.197 20.5537 117.725 20.5537H123.899V19.9682C123.899 18.3095 123.425 17.0898 122.478 16.3091C121.53 15.5285 120.354 15.1382 118.95 15.1382C117.676 15.1382 116.565 15.4473 115.618 16.0652C114.67 16.6507 114.082 17.5288 113.854 18.6998H107.729C107.892 16.9434 108.48 15.4147 109.493 14.1137C110.538 12.8127 111.877 11.8207 113.511 11.1376C115.144 10.4221 116.973 10.0643 118.999 10.0643C122.461 10.0643 125.189 10.9262 127.182 12.6501C129.174 14.3739 130.171 16.8133 130.171 19.9682V34.8485H124.83L124.242 30.9455C123.523 32.2465 122.51 33.3198 121.204 34.1655C119.93 35.0112 118.28 35.434 116.255 35.434ZM117.676 30.5552C119.472 30.5552 120.861 29.9698 121.841 28.7988C122.853 27.6279 123.49 26.1806 123.752 24.4567H118.411C116.745 24.4567 115.552 24.7658 114.834 25.3837C114.115 25.9691 113.756 26.701 113.756 27.5791C113.756 28.5224 114.115 29.2542 114.834 29.7746C115.552 30.295 116.5 30.5552 117.676 30.5552ZM139.69 34.8485L132.585 10.6498H138.808L143.021 28.067L147.921 10.6498H154.879L159.779 28.067L164.042 10.6498H170.265L163.111 34.8485H156.594L151.4 16.7482L146.206 34.8485H139.69ZM180.377 35.434C178.287 35.434 176.572 35.1088 175.232 34.4582C173.894 33.7752 172.897 32.8807 172.243 31.7749C171.591 30.6691 171.263 29.4494 171.263 28.1158C171.263 25.8716 172.145 24.0501 173.909 22.6516C175.673 21.253 178.319 20.5537 181.847 20.5537H188.021V19.9682C188.021 18.3095 187.548 17.0898 186.6 16.3091C185.654 15.5285 184.478 15.1382 183.072 15.1382C181.798 15.1382 180.688 15.4473 179.74 16.0652C178.794 16.6507 178.206 17.5288 177.976 18.6998H171.851C172.015 16.9434 172.603 15.4147 173.615 14.1137C174.661 12.8127 176.001 11.8207 177.633 11.1376C179.267 10.4221 181.097 10.0643 183.121 10.0643C186.585 10.0643 189.312 10.9262 191.304 12.6501C193.298 14.3739 194.293 16.8133 194.293 19.9682V34.8485H188.952L188.364 30.9455C187.646 32.2465 186.634 33.3198 185.326 34.1655C184.052 35.0112 182.403 35.434 180.377 35.434ZM181.798 30.5552C183.596 30.5552 184.983 29.9698 185.963 28.7988C186.977 27.6279 187.614 26.1806 187.874 24.4567H182.533C180.867 24.4567 179.676 24.7658 178.956 25.3837C178.238 25.9691 177.878 26.701 177.878 27.5791C177.878 28.5224 178.238 29.2542 178.956 29.7746C179.676 30.295 180.622 30.5552 181.798 30.5552ZM201.523 45.5819L207.158 33.2385H205.688L196.231 10.6498H203.042L209.853 27.6767L216.958 10.6498H223.622L208.187 45.5819H201.523Z" fill="white"/>
</svg>
