<svg width="24" height="21" viewBox="0 0 24 21" fill="none" xmlns="http://www.w3.org/2000/svg">
<path d="M23 2.00004C22.0424 2.67552 20.9821 3.19215 19.86 3.53005C19.2577 2.83756 18.4573 2.34674 17.567 2.12397C16.6767 1.90121 15.7395 1.95724 14.8821 2.2845C14.0247 2.61176 13.2884 3.19445 12.773 3.95376C12.2575 4.71308 11.9877 5.61238 12 6.53004V7.53004C10.2426 7.57561 8.50127 7.18586 6.93101 6.39549C5.36074 5.60512 4.01032 4.43868 3 3.00004C3 3.00004 -1 12.0001 8 16.0001C5.94053 17.3981 3.48716 18.099 1 18.0001C10 23.0001 21 18.0001 21 6.50004C21 6.22004 20.97 5.94005 20.92 5.67005C21.9406 4.66354 22.6608 3.39276 23 2.00004Z" stroke="white" stroke-width="2" stroke-linecap="round" stroke-linejoin="round"/>
</svg>
